#!OML:ASF Y:\EmotionMaleHayes\Project 1\Capture day 1\Session 1\Male1.ASF
:FULLY-SPECIFIED
:DEGREES
705
root 27.5106 16.9587 -0.5975 627.591 103.609 631.011
lowerback 5.13836 -0.678937 -17.5397
upperback 1.62847 -1.63905 -2.83757
thorax -0.720371 -0.768716 6.86428
lowerneck -23.1286 4.91378 6.41065
upperneck 16.7349 5.2596 -3.00701
head 9.31442 2.5305 -1.30904
rclavicle 2.75425e-015 1.02126e-014
rhumerus -47.3211 4.27406 -85.7232
rradius 33.9653
rwrist -1.12534
rhand -9.20466 -32.2807
rfingers 7.12502
rthumb 16.7494 -61.5782
lclavicle 2.75425e-015 1.02126e-014
lhumerus -17.0897 -28.7455 86.9396
lradius 41.969
lwrist 3.8437
lhand -17.1886 -22.5043
lfingers 7.12502
lthumb 9.05332 7.28138
rfemur -22.724 -3.46135 2.56165
rtibia 27.8068
rfoot -10.3585 -5.96853
rtoes 22.1278
lfemur 16.5221 5.95634 -36.7472
ltibia 2.78771
lfoot -12.8101 0.034885
ltoes 5.74364
706
root 27.6063 16.9419 -0.594704 628.181 103.565 631.481
lowerback 5.02136 -0.726069 -17.5082
upperback 1.65046 -1.67266 -2.80141
thorax -0.622075 -0.795269 6.8842
lowerneck -22.8799 4.94587 6.25349
upperneck 16.4272 5.32423 -2.82215
head 9.15705 2.57308 -1.2157
rclavicle -4.81432e-015 -5.49391e-014
rhumerus -47.4909 4.07077 -85.6327
rradius 33.9596
rwrist -0.923435
rhand -9.21405 -31.9191
rfingers 7.12502
rthumb 16.7404 -61.2174
lclavicle -4.81432e-015 -5.49391e-014
lhumerus -16.9976 -29.0757 87.075
lradius 42.1758
lwrist 3.95981
lhand -17.0633 -22.5876
lfingers 7.12502
lthumb 9.17428 7.19285
rfemur -22.7319 -3.49009 2.62989
rtibia 25.7918
rfoot -9.84027 -5.95447
rtoes 19.771
lfemur 16.7424 5.911 -36.6102
ltibia 2.8353
lfoot -12.9552 -0.165571
ltoes 6.59199
707
root 27.7026 16.9212 -0.586475 628.095 103.206 631.27
lowerback 4.93219 -0.721495 -17.2071
upperback 1.66051 -1.63908 -2.68169
thorax -0.577037 -0.786433 6.84583
lowerneck -22.879 4.99608 6.22736
upperneck 16.2622 5.38059 -2.74872
head 9.09893 2.60516 -1.17865
rclavicle 4.05257e-015 3.78933e-014
rhumerus -47.6074 3.92918 -85.6275
rradius 33.8456
rwrist -0.803043
rhand -9.06037 -31.8747
rfingers 7.12502
rthumb 16.8883 -61.1603
lclavicle 4.05257e-015 3.78933e-014
lhumerus -16.9134 -29.463 87.1966
lradius 42.3348
lwrist 4.04677
lhand -16.9387 -22.7548
lfingers 7.12502
lthumb 9.29448 7.02033
rfemur -22.8097 -3.1677 3.13309
rtibia 23.9841
rfoot -10.8984 -6.18326
rtoes 21.2416
lfemur 16.9937 5.77224 -36.0983
ltibia 2.814
lfoot -13.2036 -0.111548
ltoes 7.35487
708
root 27.8012 16.9084 -0.586703 628.957 103.503 631.939
lowerback 4.87601 -0.786586 -17.451
upperback 1.57095 -1.7319 -2.75557
thorax -0.612687 -0.822747 6.90232
lowerneck -23.1377 5.00011 6.30401
upperneck 16.5626 5.37428 -2.8584
head 9.25341 2.59292 -1.22371
rclavicle -7.26884e-015 7.10904e-014
rhumerus -47.9942 4.02377 -85.7847
rradius 33.8918
rwrist -0.849355
rhand -8.9613 -31.8035
rfingers 7.12502
rthumb 16.9837 -61.081
lclavicle -7.26884e-015 7.10904e-014
lhumerus -16.9172 -29.9222 87.3617
lradius 42.3794
lwrist 4.20936
lhand -16.7628 -22.8405
lfingers 7.12502
lthumb 9.46421 6.92699
rfemur -22.8288 -3.35666 2.73518
rtibia 21.9175
rfoot -10.6764 -5.98519
rtoes 21.2417
lfemur 17.1424 5.78753 -36.3802
ltibia 2.85376
lfoot -13.493 -0.301385
ltoes 7.17909
709
root 27.9035 16.8965 -0.590496 629.968 103.833 632.725
lowerback 4.65967 -0.888017 -17.6909
upperback 1.54135 -1.82867 -2.83053
thorax -0.491136 -0.876509 6.94968
lowerneck -23.3303 5.02768 6.28359
upperneck 16.7286 5.40393 -2.83392
head 9.34465 2.60662 -1.2033
rclavicle 3.22404e-015 -9.01985e-015
rhumerus -48.2295 4.00852 -85.8151
rradius 33.9397
rwrist -0.881466
rhand -8.66365 -31.8923
rfingers 7.12502
rthumb 17.2702 -61.1449
lclavicle 3.22404e-015 -9.01985e-015
lhumerus -16.9112 -30.2183 87.5398
lradius 42.4719
lwrist 4.19307
lhand -16.6361 -22.8906
lfingers 7.12502
lthumb 9.5865 6.87129
rfemur -22.8072 -3.90839 2.34235
rtibia 20.1529
rfoot -10.8905 -5.42002
rtoes 21.1668
lfemur 17.3117 5.79111 -36.7551
ltibia 2.84798
lfoot -13.8186 -0.508267
ltoes 7.01447
